<?xml version="1.0" standalone="no"?>
<!DOCTYPE svg PUBLIC "-//W3C//DTD SVG 20010904//EN"
 "http://www.w3.org/TR/2001/REC-SVG-20010904/DTD/svg10.dtd">
<svg version="1.0" xmlns="http://www.w3.org/2000/svg"
 width="260.000000pt" height="260.000000pt" viewBox="0 0 260.000000 260.000000"
 preserveAspectRatio="xMidYMid meet">
<metadata>
Created by potrace 1.11, written by Peter Selinger 2001-2013
</metadata>
<g transform="translate(0.000000,260.000000) scale(0.100000,-0.100000)"
fill="#000000" stroke="none">
<path d="M2095 2366 c-33 -12 -70 -27 -82 -33 -12 -7 -29 -13 -37 -13 -9 0
-16 -4 -16 -8 0 -20 -70 -40 -151 -42 -46 -1 -99 -2 -116 -3 -18 0 -33 -4 -33
-9 0 -5 -4 -7 -9 -4 -10 7 -147 -20 -196 -38 -76 -28 -165 -70 -165 -77 0 -5
-5 -9 -11 -9 -19 0 -93 -58 -159 -124 -82 -83 -111 -116 -102 -116 4 0 1 -4
-5 -8 -18 -11 -124 -222 -117 -233 3 -5 0 -9 -5 -9 -13 0 -14 -20 -1 -40 8
-13 11 -12 24 5 8 11 18 34 22 50 8 35 66 158 76 163 5 2 8 9 8 16 0 6 13 26
29 44 17 17 27 32 24 32 -10 0 101 102 141 128 59 39 135 78 181 92 22 6 47
14 55 17 20 8 43 12 135 28 68 11 185 13 191 4 3 -6 -2 -19 -12 -28 -28 -27
-59 -65 -61 -74 -1 -5 -12 -17 -24 -28 -12 -10 -19 -19 -15 -19 4 0 -4 -15
-18 -33 -15 -19 -26 -39 -26 -45 0 -7 -5 -12 -12 -12 -6 0 -9 -3 -5 -6 3 -3
-5 -25 -18 -49 -25 -44 -98 -224 -95 -233 0 -1 -7 -16 -15 -32 -9 -17 -13 -30
-11 -30 3 0 -2 -19 -11 -42 -8 -24 -15 -51 -15 -60 0 -10 -3 -18 -7 -18 -4 0
-8 -6 -9 -12 -1 -15 -10 -52 -12 -55 -2 -2 -3 -11 -5 -20 -1 -10 -6 -29 -12
-43 -6 -14 -9 -28 -6 -32 2 -4 -3 -5 -11 -2 -8 3 -18 20 -22 37 -3 18 -10 37
-14 42 -4 6 -11 25 -15 44 -6 28 -9 31 -21 20 -13 -13 -12 -22 7 -99 2 -8 6
-17 9 -20 3 -3 14 -25 25 -49 l19 -43 -34 -102 c-19 -55 -37 -103 -40 -106 -3
-3 -7 -14 -8 -25 -2 -11 -8 -25 -13 -31 -5 -6 -10 -19 -12 -30 -2 -10 -18 -48
-37 -84 -19 -36 -34 -67 -35 -70 -4 -24 -98 -150 -143 -191 -61 -55 -129 -102
-149 -102 -7 0 -13 -5 -13 -10 0 -6 -3 -8 -6 -4 -3 3 -17 2 -31 -4 -34 -13
-82 -22 -120 -23 -18 -1 -33 -3 -33 -6 0 -8 -127 -4 -195 5 -68 10 -61 8 -98
23 -16 7 -35 12 -43 12 -8 0 -14 3 -14 8 0 4 -14 13 -32 21 -92 41 -164 161
-171 286 -1 17 -6 33 -12 37 -7 5 -6 8 1 8 5 0 11 17 11 38 2 85 69 198 145
245 29 18 37 37 15 37 -15 0 -107 -48 -125 -66 -7 -8 -21 -19 -31 -26 -20 -14
-104 -135 -110 -158 -2 -8 -9 -33 -16 -55 -14 -49 -12 -154 4 -215 16 -59 34
-100 43 -100 5 0 8 -6 8 -14 0 -24 132 -149 160 -151 3 -1 21 -6 41 -13 20 -7
47 -15 60 -19 40 -10 282 -16 276 -6 -3 4 9 8 26 7 18 -1 52 5 77 13 25 8 56
16 69 19 13 3 34 10 45 17 12 6 23 12 26 13 3 1 15 5 28 9 12 4 22 12 22 17 0
5 4 7 8 4 4 -2 48 22 98 55 99 67 228 194 289 285 22 32 42 61 45 64 11 9 64
105 61 109 -2 2 4 8 13 13 9 5 14 13 11 19 -4 5 -1 9 5 9 6 0 9 4 5 9 -3 5 2
17 11 25 8 9 13 16 9 16 -4 0 7 21 31 58 3 5 58 -30 66 -42 4 -6 10 -7 14 -3
4 4 12 3 18 -2 15 -11 75 -30 117 -37 63 -10 259 -6 259 5 0 3 15 7 33 8 74 3
105 14 239 78 43 21 104 62 139 93 69 62 154 179 164 223 4 16 11 29 15 29 5
0 7 6 4 14 -3 8 -1 17 5 20 9 6 26 101 24 139 0 9 4 17 9 17 5 0 4 9 -2 20 -7
13 -7 20 -1 20 6 0 8 6 6 13 -2 6 -7 30 -10 52 -9 66 -37 155 -48 155 -6 0 -8
3 -4 6 10 10 -51 100 -104 154 -96 96 -291 186 -416 193 -23 1 8 27 62 52 29
14 57 25 62 25 6 0 16 7 23 15 23 28 -3 32 -65 11z m-107 -208 c6 -1 12 -5 12
-10 0 -5 4 -7 9 -3 11 6 112 -41 163 -76 60 -42 174 -169 152 -169 -5 0 -4 -4
2 -8 14 -10 42 -71 46 -102 2 -14 6 -29 9 -35 6 -10 9 -50 13 -148 1 -27 -2
-51 -6 -53 -5 -3 -6 -9 -3 -14 12 -20 -36 -159 -77 -225 -51 -80 -200 -189
-288 -211 -32 -8 -40 -9 -62 -13 -5 0 -11 -2 -15 -2 -5 -1 -18 -5 -30 -10 -13
-5 -23 -5 -23 0 0 5 -12 6 -27 2 -16 -4 -41 -5 -58 -1 -16 3 -45 5 -62 5 -18
-1 -33 2 -33 5 0 3 -13 5 -30 4 -16 -1 -30 2 -30 7 0 5 -10 9 -23 9 -13 0 -27
3 -31 7 -3 4 -13 8 -20 9 -26 4 -63 34 -61 52 1 9 8 28 15 42 8 14 13 31 12
38 -2 6 2 12 8 12 5 0 10 10 10 23 0 13 4 27 9 32 9 10 78 228 82 260 1 6 6
21 11 35 6 14 12 39 15 55 3 17 10 36 15 43 6 6 8 12 5 12 -5 0 18 73 44 135
7 17 13 35 14 41 3 11 55 117 86 174 8 14 25 40 39 58 22 29 28 32 60 27 19
-3 41 -6 48 -7z"/>
</g>
</svg>
